# This file uses centimeters as units for non-parametric coordinates.

mtllib Floor_Bend_LP.mtl
g default
v 3.000000 0.000000 0.000000
v 3.000000 0.000000 -2.000021
v 2.826006 0.000000 -1.996571
v 2.772930 0.000000 -1.995511
v 2.722953 0.000000 -1.992414
v 2.559237 0.000000 -1.982742
v 2.513280 0.000000 -1.977417
v 2.362515 0.000000 -1.960401
v 2.319335 0.000000 -1.951262
v 2.177664 0.000000 -1.921809
v 2.136229 0.000000 -1.907691
v 2.000232 0.000000 -1.862046
v 1.959931 0.000000 -1.842371
v 1.827481 0.000000 -1.778510
v 1.701910 0.000000 -1.691742
v 1.663161 0.000000 -1.665934
v 1.544232 0.000000 -1.561209
v 1.508362 0.000000 -1.528980
v 1.398917 0.000000 -1.410269
v 1.365887 0.000000 -1.373957
v 1.337558 0.000000 -1.334743
v 1.243439 0.000000 -1.206403
v 1.220894 0.000000 -1.165713
v 1.146427 0.000000 -1.031844
v 1.130017 0.000000 -0.989933
v 1.076253 0.000000 -0.851972
v 1.065787 0.000000 -0.807242
v 1.032091 0.000000 -0.660037
v 1.025895 0.000000 -0.610979
v 1.006772 0.000000 -0.449525
v 1.003566 0.000000 -0.397608
v 0.993978 0.000000 -0.227436
v 0.993913 0.000000 -0.000044
vt 1.000000 0.000000
vt 1.000000 0.666674
vt 0.942002 0.665524
vt 0.924310 0.665170
vt 0.907651 0.664138
vt 0.853079 0.660914
vt 0.837760 0.659139
vt 0.787505 0.653467
vt 0.773111 0.650421
vt 0.725888 0.640603
vt 0.712076 0.635897
vt 0.666744 0.620682
vt 0.653310 0.614124
vt 0.609160 0.592837
vt 0.567303 0.563914
vt 0.554387 0.555311
vt 0.514744 0.520403
vt 0.502787 0.509660
vt 0.466306 0.470090
vt 0.455296 0.457986
vt 0.445853 0.444915
vt 0.414480 0.402134
vt 0.406965 0.388571
vt 0.382142 0.343948
vt 0.376672 0.329978
vt 0.358751 0.283991
vt 0.355262 0.269081
vt 0.344030 0.220012
vt 0.341965 0.203660
vt 0.335591 0.149842
vt 0.334522 0.132536
vt 0.331326 0.075812
vt 0.331304 0.000015
vn 0.000000 1.000000 0.000000
vn 0.000000 1.000000 0.000000
vn 0.000000 1.000000 0.000000
vn 0.000000 1.000000 0.000000
vn 0.000000 1.000000 0.000000
vn 0.000000 1.000000 0.000000
vn 0.000000 1.000000 0.000000
vn 0.000000 1.000000 0.000000
vn 0.000000 1.000000 0.000000
vn 0.000000 1.000000 0.000000
vn 0.000000 1.000000 0.000000
vn 0.000000 1.000000 0.000000
vn 0.000000 1.000000 0.000000
vn 0.000000 1.000000 0.000000
vn 0.000000 1.000000 0.000000
vn 0.000000 1.000000 0.000000
vn 0.000000 1.000000 0.000000
vn 0.000000 1.000000 0.000000
vn 0.000000 1.000000 0.000000
vn 0.000000 1.000000 0.000000
vn 0.000000 1.000000 0.000000
vn 0.000000 1.000000 0.000000
vn 0.000000 1.000000 0.000000
vn 0.000000 1.000000 0.000000
vn 0.000000 1.000000 0.000000
vn 0.000000 1.000000 0.000000
vn 0.000000 1.000000 0.000000
vn 0.000000 1.000000 0.000000
vn 0.000000 1.000000 0.000000
vn 0.000000 1.000000 0.000000
vn 0.000000 1.000000 0.000000
vn 0.000000 1.000000 0.000000
vn 0.000000 1.000000 0.000000
s off
g Floor_Bend_LP
usemtl initialShadingGroup
f 33/33/1 1/1/2 2/2/3 3/3/4 4/4/5 5/5/6 6/6/7 7/7/8 8/8/9 9/9/10 10/10/11 11/11/12 12/12/13 13/13/14 14/14/15 15/15/16 16/16/17 17/17/18 18/18/19 19/19/20 20/20/21 21/21/22 22/22/23 23/23/24 24/24/25 25/25/26 26/26/27 27/27/28 28/28/29 29/29/30 30/30/31 31/31/32 32/32/33
