# This file uses centimeters as units for non-parametric coordinates.

mtllib Outside_Bend_LP.mtl
g default
v 0.184392 0.000000 -2.974289
v 0.508621 0.000000 -2.591463
v 0.837852 0.000000 -2.213600
v 0.186838 1.000000 -2.976733
v 0.511583 1.000000 -2.594425
v 0.837852 0.600000 -2.213594
v 3.000000 1.000000 -3.999953
v 3.000000 1.000000 -3.500387
v 3.000000 0.600000 -3.000580
v 3.000000 0.000000 -4.000047
v 3.000000 0.000000 -3.500488
v 3.000000 0.000000 -3.000592
v -1.000000 0.000000 0.000000
v -0.500000 0.000000 0.000000
v 0.000000 0.000000 -0.000090
v -1.000000 1.000000 0.000000
v -0.500000 1.000000 0.000000
v 0.000000 0.600000 -0.000090
v -0.673872 1.000000 -1.650645
v -0.674252 0.000000 -1.650276
v -0.223504 0.000000 -1.447916
v 0.222048 0.000000 -1.240314
v 0.222048 0.600000 -1.240311
v -0.222618 1.000000 -1.448792
v -0.301443 0.000000 -2.370964
v -0.300103 1.000000 -2.372297
v 0.093627 1.000000 -2.072621
v 0.484612 0.600000 -1.770148
v 0.484612 0.000000 -1.770152
v 0.091754 0.000000 -2.070754
v -0.916998 1.000000 -0.842746
v -0.916998 0.000000 -0.842746
v -0.426605 0.000000 -0.745359
v 0.057858 0.000000 -0.642063
v 0.057858 0.600000 -0.642062
v -0.426605 1.000000 -0.745346
v -0.979199 1.000000 -0.423406
v -0.979199 0.000000 -0.423406
v -0.481607 0.000000 -0.374440
v 0.015102 0.000000 -0.324726
v 0.015102 0.600000 -0.324726
v -0.481607 1.000000 -0.374434
v -0.813994 0.000000 -1.254061
v -0.813994 1.000000 -1.254051
v -0.339367 1.000000 -1.105258
v 0.127159 0.600000 -0.948340
v 0.127159 0.000000 -0.948341
v -0.339823 0.000000 -1.104813
v -0.501963 1.000000 -2.024658
v -0.502799 0.000000 -2.023832
v -0.079195 0.000000 -1.770922
v 0.341527 0.000000 -1.515079
v 0.341527 0.600000 -1.515076
v -0.077834 1.000000 -1.772275
v -0.071872 0.000000 -2.688573
v -0.069930 1.000000 -2.690512
v 0.290489 1.000000 -2.347308
v 0.650352 0.600000 -2.003499
v 0.650352 0.000000 -2.003505
v 0.288078 0.000000 -2.344901
v 1.438825 1.000000 -3.763370
v 1.438825 0.000000 -3.763450
v 1.612498 0.000000 -3.284072
v 1.787862 0.000000 -2.806128
v 1.787862 0.600000 -2.806118
v 1.613765 1.000000 -3.285275
v 0.771277 1.000000 -3.443710
v 0.771277 0.000000 -3.443776
v 1.018233 0.000000 -2.997238
v 1.274691 0.000000 -2.560165
v 1.274691 0.600000 -2.560158
v 1.022267 1.000000 -3.001278
v 0.469169 1.000000 -3.229658
v 0.466008 0.000000 -3.226494
v 0.752334 0.000000 -2.809149
v 1.046252 0.000000 -2.399364
v 1.046252 0.600000 -2.399357
v 0.755843 1.000000 -2.812661
v 1.094301 0.000000 -3.621008
v 1.094301 1.000000 -3.620936
v 1.309844 1.000000 -3.160025
v 1.522248 0.600000 -2.695736
v 1.522248 0.000000 -2.695745
v 1.305323 0.000000 -3.155499
v 2.183118 0.000000 -3.942972
v 2.183118 1.000000 -3.942881
v 2.275147 1.000000 -3.447349
v 2.367799 0.600000 -2.952215
v 2.367799 0.000000 -2.952226
v 2.275147 0.000000 -3.447446
v 2.583209 0.000000 -3.985877
v 2.583209 1.000000 -3.985783
v 2.630783 1.000000 -3.487177
v 2.678529 0.600000 -2.988506
v 2.678529 0.000000 -2.988517
v 2.630783 0.000000 -3.487276
v 1.802011 1.000000 -3.870103
v 1.802011 0.000000 -3.870189
v 1.935553 0.000000 -3.380425
v 2.070246 0.000000 -2.891524
v 2.070246 0.600000 -2.891513
v 1.935553 1.000000 -3.380333
vt 0.498000 0.513072
vt 0.411124 0.513055
vt 0.758630 0.513121
vt 0.671753 0.513104
vt 0.324247 0.513039
vt 0.869886 0.513142
vt 0.157884 0.729661
vt 0.256472 0.729404
vt 0.870070 0.982180
vt 0.411308 0.982094
vt 0.498184 0.982110
vt 0.974322 0.982200
vt 0.059091 0.651047
vt 0.058782 0.532742
vt 0.671937 0.982143
vt 0.255958 0.532228
vt 0.157370 0.532485
vt 0.758814 0.982159
vt 0.324432 0.982078
vt 0.974137 0.513161
vt 0.076832 0.274783
vt 0.170263 0.275147
vt 0.169534 0.462009
vt 0.076103 0.461644
vt 0.263694 0.275512
vt 0.263256 0.387628
vt 0.671753 0.016321
vt 0.758630 0.016338
vt 0.758814 0.485376
vt 0.671937 0.485360
vt 0.869886 0.016359
vt 0.870070 0.485397
vt 0.498184 0.485327
vt 0.411308 0.485311
vt 0.411124 0.016272
vt 0.498000 0.016289
vt 0.324432 0.485295
vt 0.324247 0.016256
vt 0.974137 0.016378
vt 0.974322 0.485417
vt 0.671845 0.250841
vt 0.498092 0.250808
vt 0.411216 0.250792
vt 0.324339 0.250775
vt 0.974230 0.250898
vt 0.869978 0.250878
vt 0.758722 0.250857
vt 0.498138 0.368068
vt 0.671891 0.368100
vt 0.758768 0.368117
vt 0.870024 0.368138
vt 0.324385 0.368035
vt 0.974276 0.368157
vt 0.411262 0.368051
vt 0.671799 0.133581
vt 0.498046 0.133548
vt 0.411170 0.133532
vt 0.324293 0.133516
vt 0.974183 0.133638
vt 0.869932 0.133618
vt 0.758676 0.133597
vt 0.671776 0.074951
vt 0.498023 0.074919
vt 0.411147 0.074902
vt 0.324270 0.074886
vt 0.974160 0.075008
vt 0.869909 0.074989
vt 0.758653 0.074968
vt 0.498069 0.192178
vt 0.671822 0.192211
vt 0.758699 0.192227
vt 0.869955 0.192248
vt 0.324316 0.192145
vt 0.974206 0.192268
vt 0.411193 0.192162
vt 0.671868 0.309471
vt 0.498115 0.309438
vt 0.411239 0.309421
vt 0.324362 0.309405
vt 0.974253 0.309528
vt 0.870001 0.309508
vt 0.758745 0.309487
vt 0.498161 0.426698
vt 0.671914 0.426730
vt 0.758791 0.426747
vt 0.870047 0.426768
vt 0.324409 0.426665
vt 0.974299 0.426787
vt 0.411285 0.426681
vt 0.671845 0.747624
vt 0.498092 0.747591
vt 0.411216 0.747575
vt 0.324339 0.747558
vt 0.974230 0.747681
vt 0.869978 0.747661
vt 0.758722 0.747640
vt 0.671799 0.630364
vt 0.498046 0.630331
vt 0.411170 0.630315
vt 0.324293 0.630299
vt 0.974183 0.630421
vt 0.869932 0.630401
vt 0.758676 0.630381
vt 0.671776 0.571734
vt 0.498023 0.571702
vt 0.411147 0.571685
vt 0.324270 0.571669
vt 0.974160 0.571791
vt 0.869909 0.571772
vt 0.758653 0.571751
vt 0.498069 0.688961
vt 0.671822 0.688994
vt 0.758699 0.689010
vt 0.869955 0.689031
vt 0.324316 0.688928
vt 0.974206 0.689051
vt 0.411193 0.688945
vt 0.498138 0.864851
vt 0.671891 0.864883
vt 0.758768 0.864900
vt 0.870024 0.864921
vt 0.324385 0.864818
vt 0.974276 0.864940
vt 0.411262 0.864834
vt 0.498161 0.923481
vt 0.671914 0.923513
vt 0.758791 0.923530
vt 0.870047 0.923551
vt 0.324409 0.923448
vt 0.974299 0.923570
vt 0.411285 0.923464
vt 0.671868 0.806254
vt 0.498115 0.806221
vt 0.411239 0.806204
vt 0.324362 0.806188
vt 0.974253 0.806311
vt 0.870001 0.806291
vt 0.758745 0.806270
vn 0.000000 1.000000 0.000000
vn 0.233043 0.936756 0.261113
vn 0.207683 0.942419 0.262134
vn 0.000000 1.000000 0.000000
vn 0.415177 0.781813 0.465185
vn 0.387542 0.783471 0.485782
vn 1.000000 0.000000 0.000000
vn 1.000000 0.000000 0.000000
vn 1.000000 0.000000 0.000000
vn 1.000000 0.000000 0.000000
vn 1.000000 0.000000 0.000000
vn 1.000000 0.000000 0.000000
vn 0.000000 -1.000000 0.000000
vn 0.000000 -1.000000 0.000000
vn 0.000000 -1.000000 0.000000
vn 0.000000 -1.000000 0.000000
vn 0.000000 -1.000000 0.000000
vn 0.000000 -1.000000 0.000000
vn 0.665402 -0.000008 0.746486
vn 0.621512 -0.000009 0.783405
vn 0.621512 -0.000009 0.783405
vn 0.665402 -0.000008 0.746486
vn -0.624328 -0.000283 -0.781162
vn -0.624578 -0.000283 -0.780963
vn -0.667195 -0.000218 -0.744883
vn -0.667195 -0.000218 -0.744883
vn 0.000000 0.000000 1.000000
vn 0.000080 0.000000 1.000000
vn 0.000056 0.000000 1.000000
vn 0.000000 0.000000 1.000000
vn 0.000179 0.000000 1.000000
vn 0.000179 0.000000 1.000000
vn 0.000000 1.000000 0.000000
vn 0.340934 0.939945 0.016336
vn 0.339279 0.940138 0.032112
vn 0.000000 1.000000 0.000000
vn 0.624763 0.780240 0.029935
vn 0.623244 0.779812 0.058829
vn 0.000000 -1.000000 0.000000
vn 0.000000 -1.000000 0.000000
vn 0.000000 -1.000000 0.000000
vn 0.000000 -1.000000 0.000000
vn 0.000000 -1.000000 0.000000
vn 0.000000 -1.000000 0.000000
vn 0.998920 0.000000 0.046470
vn 0.995963 -0.000000 0.089762
vn 0.995963 -0.000000 0.089762
vn 0.998920 0.000000 0.046470
vn -0.995185 0.000000 -0.098016
vn -0.995185 0.000000 -0.098016
vn -0.998795 0.000000 -0.049068
vn -0.998795 0.000000 -0.049068
vn -0.744400 0.000171 -0.667734
vn -0.778856 0.000273 -0.627203
vn -0.778741 0.000272 -0.627345
vn -0.744400 0.000171 -0.667734
vn 0.000000 -1.000000 0.000000
vn 0.000000 -1.000000 0.000000
vn 0.000000 -1.000000 0.000000
vn 0.000000 -1.000000 0.000000
vn 0.000000 -1.000000 0.000000
vn 0.000000 -1.000000 0.000000
vn 0.782172 -0.000005 0.623062
vn 0.782172 -0.000005 0.623062
vn 0.746088 -0.000006 0.665848
vn 0.746088 -0.000006 0.665848
vn 0.263670 0.941094 0.211709
vn 0.491422 0.778354 0.390728
vn 0.467371 0.779175 0.417672
vn 0.240662 0.946481 0.215070
vn -0.000000 1.000000 -0.000000
vn -0.000000 1.000000 0.000000
vn -0.888067 0.000351 -0.459715
vn -0.888098 0.000351 -0.459655
vn -0.927006 0.000210 -0.375045
vn -0.926996 0.000210 -0.375071
vn 0.000000 1.000000 0.000000
vn 0.318594 0.939817 0.123454
vn 0.304851 0.939913 0.153720
vn 0.000000 1.000000 0.000000
vn 0.590265 0.774778 0.226510
vn 0.565535 0.774932 0.282224
vn 0.935326 -0.000001 0.353787
vn 0.935326 -0.000001 0.353787
vn 0.896014 -0.000002 0.444025
vn 0.896015 -0.000002 0.444025
vn 0.000000 -1.000000 0.000000
vn 0.000000 -1.000000 0.000000
vn 0.000000 -1.000000 0.000000
vn 0.000000 -1.000000 0.000000
vn 0.000000 -1.000000 0.000000
vn 0.000000 -1.000000 0.000000
vn -0.957623 0.000060 -0.288024
vn -0.957623 0.000060 -0.288024
vn 0.000000 -1.000000 0.000000
vn 0.000000 -1.000000 0.000000
vn 0.000000 -1.000000 0.000000
vn 0.964341 -0.000001 0.264662
vn 0.964341 -0.000001 0.264663
vn 0.328477 0.939898 0.093247
vn 0.607323 0.775840 0.170972
vn 0.000000 1.000000 -0.000000
vn -0.980790 0.000001 -0.195066
vn -0.980790 0.000001 -0.195066
vn 0.000000 -1.000000 0.000000
vn 0.000000 -1.000000 0.000000
vn 0.000000 -1.000000 0.000000
vn 0.984237 -0.000000 0.176857
vn 0.984237 -0.000000 0.176857
vn 0.617731 0.777856 0.115537
vn 0.335352 0.939977 0.063101
vn 0.000000 1.000000 -0.000000
vn -0.838966 0.000386 -0.544183
vn -0.839030 0.000386 -0.544085
vn 0.000000 -1.000000 0.000000
vn 0.000000 -1.000000 0.000000
vn 0.000000 -1.000000 0.000000
vn 0.845218 -0.000004 0.534422
vn 0.845218 -0.000004 0.534421
vn 0.532610 0.776216 0.337364
vn 0.286477 0.940378 0.183356
vn 0.000000 1.000000 -0.000000
vn -0.033979 0.000094 -0.999423
vn -0.069698 0.000093 -0.997568
vn -0.069698 0.000093 -0.997568
vn -0.033979 0.000094 -0.999423
vn 0.000000 -1.000000 -0.000000
vn 0.000000 -1.000000 -0.000000
vn 0.000000 -1.000000 -0.000000
vn 0.000000 -1.000000 -0.000000
vn 0.000000 -1.000000 -0.000000
vn 0.000000 -1.000000 -0.000000
vn 0.076280 -0.000019 0.997086
vn 0.076280 -0.000019 0.997086
vn 0.037535 -0.000019 0.999295
vn 0.037535 -0.000019 0.999295
vn 0.025708 0.939317 0.342086
vn 0.046271 0.781519 0.622164
vn 0.022860 0.780734 0.624446
vn 0.012585 0.938964 0.343785
vn 0.000000 1.000000 0.000000
vn 0.000000 1.000000 0.000000
vn -0.332103 0.000075 -0.943243
vn -0.332101 0.000075 -0.943244
vn -0.431900 0.000065 -0.901922
vn -0.431902 0.000065 -0.901921
vn 0.000000 -1.000000 0.000000
vn 0.000000 -1.000000 0.000000
vn 0.000000 -1.000000 0.000000
vn 0.000000 -1.000000 0.000000
vn 0.000000 -1.000000 0.000000
vn 0.000000 -1.000000 0.000000
vn 0.432216 -0.000013 0.901770
vn 0.432216 -0.000013 0.901770
vn 0.336434 -0.000015 0.941707
vn 0.336434 -0.000015 0.941707
vn 0.144323 0.942563 0.301242
vn 0.267217 0.786852 0.556291
vn 0.206262 0.786559 0.582048
vn 0.112265 0.941948 0.316433
vn 0.000000 1.000000 0.000000
vn 0.000000 1.000000 0.000000
vn -0.531167 -0.000145 -0.847267
vn -0.531165 -0.000145 -0.847269
vn 0.000000 -1.000000 0.000000
vn 0.000000 -1.000000 0.000000
vn 0.000000 -1.000000 0.000000
vn 0.528566 -0.000011 0.848892
vn 0.528566 -0.000011 0.848892
vn 0.328461 0.785601 0.524351
vn 0.176849 0.942465 0.283697
vn 0.000000 1.000000 0.000000
vn -0.234468 0.000083 -0.972124
vn -0.234467 0.000083 -0.972124
vn 0.081814 0.940911 0.328623
vn 0.000000 1.000000 0.000000
vn 0.148981 0.784978 0.601344
vn 0.244287 -0.000017 0.969703
vn 0.244288 -0.000017 0.969703
vn 0.000000 -1.000000 0.000000
vn 0.000000 -1.000000 0.000000
vn 0.000000 -1.000000 0.000000
vn -0.146487 0.000089 -0.989213
vn -0.146488 0.000089 -0.989213
vn 0.000000 1.000000 0.000000
vn 0.052958 0.939957 0.337160
vn 0.095761 0.783043 0.614551
vn 0.157464 -0.000018 0.987525
vn 0.157464 -0.000018 0.987525
vn 0.000000 -1.000000 0.000000
vn 0.000000 -1.000000 0.000000
vn 0.000000 -1.000000 0.000000
s 1
g Outside_Bend_LP
usemtl initialShadingGroup
f 4/4/1 5/3/2 78/110/3 73/104/4
f 5/3/2 6/6/5 77/109/6 78/110/3
s 2
f 7/8/7 8/7/8 11/17/9 10/16/10
f 8/7/8 9/13/11 12/14/12 11/17/9
s 3
f 74/105/13 75/106/14 2/2/15 1/1/16
f 75/106/14 76/107/17 3/5/18 2/2/15
s 4
f 3/20/19 76/108/20 77/109/21 6/6/22
s 5
f 73/104/23 74/105/24 1/1/25 4/4/26
s 6
f 13/21/27 14/22/28 17/23/29 16/24/30
f 14/22/28 15/25/31 18/26/32 17/23/29
s 7
f 16/27/33 17/28/34 42/68/35 37/62/36
f 17/28/34 18/31/37 41/67/38 42/68/35
s 8
f 38/63/39 39/64/40 14/35/41 13/36/42
f 39/64/40 40/65/43 15/38/44 14/35/41
s 9
f 15/39/45 40/66/46 41/67/47 18/31/48
s 10
f 37/62/49 38/63/50 13/36/51 16/27/52
f 1/33/53 55/83/54 56/84/55 4/30/56
s 8
f 1/33/57 2/34/58 60/89/59 55/83/60
f 2/34/58 3/37/61 59/87/62 60/89/59
s 9
f 58/86/63 59/88/64 3/40/65 6/32/66
s 7
f 57/85/67 58/86/68 6/32/69 5/29/70
f 56/84/71 57/85/67 5/29/70 4/30/72
s 10
f 49/76/73 50/77/74 20/42/75 19/41/76
s 7
f 19/41/77 24/47/78 54/82/79 49/76/80
f 24/47/78 23/46/81 53/81/82 54/82/79
s 9
f 23/46/83 22/45/84 52/80/85 53/81/86
s 8
f 51/78/87 52/79/88 22/44/89 21/43/90
f 50/77/91 51/78/87 21/43/90 20/42/92
s 10
f 19/41/76 20/42/75 43/69/93 44/70/94
s 8
f 20/42/92 21/43/90 48/75/95 43/69/96
f 21/43/90 22/44/89 47/73/97 48/75/95
s 9
f 46/72/98 47/74/99 22/45/84 23/46/83
s 7
f 45/71/100 46/72/101 23/46/81 24/47/78
f 44/70/102 45/71/100 24/47/78 19/41/77
s 10
f 31/55/103 32/56/104 38/63/50 37/62/49
s 8
f 32/56/105 33/57/106 39/64/40 38/63/39
f 33/57/106 34/58/107 40/65/43 39/64/40
s 9
f 41/67/47 40/66/46 34/59/108 35/60/109
s 7
f 42/68/35 41/67/38 35/60/110 36/61/111
f 37/62/36 42/68/35 36/61/111 31/55/112
s 10
f 44/70/94 43/69/93 32/56/104 31/55/103
s 7
f 31/55/112 36/61/111 45/71/100 44/70/102
f 36/61/111 35/60/110 46/72/101 45/71/100
s 9
f 35/60/109 34/59/108 47/74/99 46/72/98
s 8
f 48/75/95 47/73/97 34/58/107 33/57/106
f 43/69/96 48/75/95 33/57/106 32/56/105
s 10
f 26/49/113 25/48/114 50/77/74 49/76/73
s 8
f 25/48/115 30/54/116 51/78/87 50/77/91
f 30/54/116 29/52/117 52/79/88 51/78/87
s 9
f 53/81/86 52/80/85 29/53/118 28/51/119
s 7
f 54/82/79 53/81/82 28/51/120 27/50/121
f 49/76/80 54/82/79 27/50/121 26/49/122
s 10
f 56/84/55 55/83/54 25/48/114 26/49/113
s 7
f 26/49/122 27/50/121 57/85/67 56/84/71
f 27/50/121 28/51/120 58/86/68 57/85/67
s 9
f 28/51/119 29/53/118 59/88/64 58/86/63
s 8
f 60/89/59 59/87/62 29/52/117 30/54/116
f 55/83/60 60/89/59 30/54/116 25/48/115
s 5
f 10/11/123 91/125/124 92/126/125 7/15/126
s 3
f 10/11/127 11/10/128 96/131/129 91/125/130
f 11/10/128 12/19/131 95/129/132 96/131/129
s 4
f 94/128/133 95/130/134 12/12/135 9/9/136
s 1
f 93/127/137 94/128/138 9/9/139 8/18/140
f 92/126/141 93/127/137 8/18/140 7/15/142
s 5
f 61/90/143 62/91/144 79/111/145 80/112/146
s 3
f 62/91/147 63/92/148 84/117/149 79/111/150
f 63/92/148 64/93/151 83/115/152 84/117/149
s 4
f 82/114/153 83/116/154 64/94/155 65/95/156
s 1
f 81/113/157 82/114/158 65/95/159 66/96/160
f 80/112/161 81/113/157 66/96/160 61/90/162
s 5
f 67/97/163 68/98/164 74/105/24 73/104/23
s 3
f 68/98/165 69/99/166 75/106/14 74/105/13
f 69/99/166 70/100/167 76/107/17 75/106/14
s 4
f 77/109/21 76/108/20 70/101/168 71/102/169
s 1
f 78/110/3 77/109/6 71/102/170 72/103/171
f 73/104/4 78/110/3 72/103/171 67/97/172
s 5
f 80/112/146 79/111/145 68/98/164 67/97/163
s 1
f 67/97/172 72/103/171 81/113/157 80/112/161
f 72/103/171 71/102/170 82/114/158 81/113/157
s 4
f 71/102/169 70/101/168 83/116/154 82/114/153
s 3
f 84/117/149 83/115/152 70/100/167 69/99/166
f 79/111/150 84/117/149 69/99/166 68/98/165
s 5
f 97/132/173 98/133/174 62/91/144 61/90/143
s 1
f 61/90/162 66/96/160 102/138/175 97/132/176
f 66/96/160 65/95/159 101/137/177 102/138/175
s 4
f 65/95/156 64/94/155 100/136/178 101/137/179
s 3
f 99/134/180 100/135/181 64/93/151 63/92/148
f 98/133/182 99/134/180 63/92/148 62/91/147
s 5
f 92/126/125 91/125/124 85/118/183 86/119/184
s 1
f 86/119/185 87/120/186 93/127/137 92/126/141
f 87/120/186 88/121/187 94/128/138 93/127/137
s 4
f 88/121/188 89/123/189 95/130/134 94/128/133
s 3
f 96/131/129 95/129/132 89/122/190 90/124/191
f 91/125/130 96/131/129 90/124/191 85/118/192
s 5
f 86/119/184 85/118/183 98/133/174 97/132/173
s 3
f 85/118/192 90/124/191 99/134/180 98/133/182
f 90/124/191 89/122/190 100/135/181 99/134/180
s 4
f 101/137/179 100/136/178 89/123/189 88/121/188
s 1
f 102/138/175 101/137/177 88/121/187 87/120/186
f 97/132/176 102/138/175 87/120/186 86/119/185
