# This file uses centimeters as units for non-parametric coordinates.

mtllib Wall_LP.mtl
g default
v -1.000000 0.000000 0.000000
v -0.500000 0.000000 0.000000
v 0.000000 0.000000 0.000000
v -1.000000 1.000000 0.000000
v -0.500000 1.000000 0.000000
v 0.000000 0.600000 0.000000
v -1.000000 1.000000 -3.000000
v -0.500000 1.000000 -3.000000
v 0.000000 0.600000 -3.000000
v -1.000000 0.000000 -3.000000
v -0.500000 0.000000 -3.000000
v 0.000000 0.000000 -3.000000
vt 0.498000 0.016289
vt 0.411124 0.016272
vt 0.758630 0.016338
vt 0.671753 0.016321
vt 0.324247 0.016256
vt 0.869886 0.016359
vt 0.157884 0.232878
vt 0.256472 0.232621
vt 0.870070 0.485397
vt 0.411308 0.485311
vt 0.498184 0.485327
vt 0.974322 0.485417
vt 0.263694 0.275512
vt 0.263256 0.387628
vt 0.076832 0.274783
vt 0.076103 0.461644
vt 0.169534 0.462009
vt 0.170263 0.275147
vt 0.059091 0.154264
vt 0.058782 0.035959
vt 0.671937 0.485360
vt 0.255958 0.035445
vt 0.157370 0.035702
vt 0.758814 0.485376
vt 0.324432 0.485295
vt 0.974137 0.016378
vn 0.000000 0.000000 1.000000
vn 0.000000 0.000000 1.000000
vn 0.000000 0.000000 1.000000
vn 0.000000 0.000000 1.000000
vn 0.000000 0.000000 1.000000
vn 0.000000 0.000000 1.000000
vn 0.000000 1.000000 0.000000
vn 0.371391 0.928477 0.000000
vn 0.371391 0.928477 0.000000
vn 0.000000 1.000000 0.000000
vn 0.624695 0.780869 0.000000
vn 0.624695 0.780869 0.000000
vn 0.000000 0.000000 -1.000000
vn 0.000000 0.000000 -1.000000
vn 0.000000 0.000000 -1.000000
vn 0.000000 0.000000 -1.000000
vn 0.000000 0.000000 -1.000000
vn 0.000000 0.000000 -1.000000
vn 0.000000 -1.000000 0.000000
vn 0.000000 -1.000000 0.000000
vn 0.000000 -1.000000 0.000000
vn 0.000000 -1.000000 0.000000
vn 0.000000 -1.000000 0.000000
vn 0.000000 -1.000000 0.000000
vn 1.000000 0.000000 0.000000
vn 1.000000 0.000000 0.000000
vn 1.000000 0.000000 0.000000
vn 1.000000 0.000000 0.000000
vn -1.000000 0.000000 0.000000
vn -1.000000 0.000000 0.000000
vn -1.000000 0.000000 0.000000
vn -1.000000 0.000000 0.000000
s 1
g Wall_LP
usemtl initialShadingGroup
f 1/15/1 2/18/2 5/17/3 4/16/4
f 2/18/2 3/13/5 6/14/6 5/17/3
s 2
f 4/4/7 5/3/8 8/24/9 7/21/10
f 5/3/8 6/6/11 9/9/12 8/24/9
s 3
f 7/8/13 8/7/14 11/23/15 10/22/16
f 8/7/14 9/19/17 12/20/18 11/23/15
s 4
f 10/11/19 11/10/20 2/2/21 1/1/22
f 11/10/20 12/25/23 3/5/24 2/2/21
s off
f 3/26/25 12/12/26 9/9/27 6/6/28
f 10/11/29 1/1/30 4/4/31 7/21/32
