# This file uses centimeters as units for non-parametric coordinates.

mtllib Wall_HP.mtl
g default
v -0.996171 0.014290 -0.028579
v -0.985710 0.003829 -0.028579
v -0.971421 0.000000 -0.028579
v -0.971421 0.003829 -0.014290
v -0.971421 0.014290 -0.003829
v -0.971421 0.028579 0.000000
v -0.985710 0.028579 -0.003829
v -0.996171 0.028579 -0.014290
v -1.000000 0.028579 -0.028579
v -0.500000 0.028579 0.000000
v -0.500000 0.014290 -0.003829
v -0.500000 0.003829 -0.014290
v -0.500000 0.000000 -0.028579
v -0.014290 0.003829 -0.028572
v -0.003829 0.014290 -0.028572
v 0.000000 0.028579 -0.028579
v -0.003829 0.028579 -0.014290
v -0.014290 0.028579 -0.003829
v -0.028579 0.028579 0.000000
v -0.028590 0.014290 -0.003829
v -0.028590 0.003829 -0.014290
v -0.028579 0.000000 -0.028579
v -0.985710 0.996171 -0.028569
v -0.996171 0.985710 -0.028569
v -1.000000 0.971421 -0.028579
v -0.996171 0.971405 -0.014290
v -0.985710 0.971405 -0.003829
v -0.971421 0.971421 0.000000
v -0.971421 0.985710 -0.003829
v -0.971421 0.996171 -0.014290
v -0.971421 1.000000 -0.028579
v -0.494717 0.993745 -0.029443
v -0.508033 0.998416 -0.029443
v -0.522056 1.000000 -0.029433
v -0.522404 0.994714 -0.014286
v -0.517790 0.984682 -0.003446
v -0.509547 0.972784 0.000000
v -0.495677 0.976942 -0.003451
v -0.485808 0.981893 -0.014291
v -0.482777 0.986222 -0.029433
v -0.002119 0.591081 -0.029325
v -0.008288 0.603917 -0.029325
v -0.017962 0.614370 -0.029320
v -0.020990 0.610950 -0.014447
v -0.024458 0.600834 -0.003681
v -0.027407 0.586827 0.000000
v -0.014637 0.580370 -0.003678
v -0.004571 0.576759 -0.014444
v 0.000000 0.576997 -0.029320
v -0.985710 0.971405 -2.996171
v -0.996171 0.971405 -2.985710
v -1.000000 0.971421 -2.971421
v -0.996171 0.985710 -2.971426
v -0.985710 0.996171 -2.971426
v -0.971421 1.000000 -2.971421
v -0.971421 0.996171 -2.985710
v -0.971421 0.985710 -2.996171
v -0.971421 0.971421 -3.000000
v -0.517664 0.984667 -2.996634
v -0.522161 0.994703 -2.985947
v -0.521736 1.000000 -2.970994
v -0.507884 0.998417 -2.970845
v -0.494678 0.993743 -2.970700
v -0.482777 0.986222 -2.970567
v -0.485808 0.981893 -2.985709
v -0.495677 0.976942 -2.996549
v -0.509547 0.972784 -3.000000
v -0.004583 0.576974 -2.985755
v -0.014651 0.580479 -2.996387
v -0.027407 0.586827 -3.000000
v -0.024382 0.600755 -2.996384
v -0.020829 0.610806 -2.985752
v -0.017735 0.614188 -2.971051
v -0.008184 0.603868 -2.971051
v -0.002092 0.591193 -2.971051
v 0.000000 0.577288 -2.971051
v -0.985710 0.003829 -2.971421
v -0.996171 0.014290 -2.971421
v -1.000000 0.028579 -2.971421
v -0.996171 0.028579 -2.985710
v -0.985710 0.028579 -2.996171
v -0.971421 0.028579 -3.000000
v -0.971421 0.014290 -2.996171
v -0.971421 0.003829 -2.985710
v -0.971421 0.000000 -2.971421
v -0.500000 0.028579 -3.000000
v -0.500000 0.014290 -2.996171
v -0.500000 0.003829 -2.985710
v -0.500000 0.000000 -2.971421
v -0.003829 0.014290 -2.971424
v -0.014290 0.003829 -2.971424
v -0.028579 0.000000 -2.971421
v -0.028590 0.003829 -2.985710
v -0.028590 0.014290 -2.996171
v -0.028579 0.028579 -3.000000
v -0.014290 0.028579 -2.996171
v -0.003829 0.028579 -2.985710
v 0.000000 0.028579 -2.971421
v -0.994022 0.016231 -0.016231
v -0.983769 0.005978 -0.016231
v -0.983769 0.016231 -0.005978
v -0.016228 0.005978 -0.016229
v -0.005974 0.016232 -0.016228
v -0.016232 0.016230 -0.005978
v -0.983766 0.994033 -0.016228
v -0.994021 0.983781 -0.016231
v -0.983770 0.983770 -0.005980
v -0.495641 0.989640 -0.016291
v -0.509846 0.994623 -0.016294
v -0.504983 0.985797 -0.005464
v -0.005227 0.589247 -0.016443
v -0.011675 0.602659 -0.016440
v -0.014418 0.593071 -0.005788
v -0.983770 0.983770 -2.994019
v -0.994021 0.983781 -2.983766
v -0.983766 0.994033 -2.983770
v -0.504913 0.985788 -2.994596
v -0.509714 0.994617 -2.983881
v -0.495603 0.989633 -2.983798
v -0.005214 0.589339 -2.983783
v -0.014386 0.593086 -2.994311
v -0.011595 0.602612 -2.983787
v -0.983769 0.005978 -2.983769
v -0.994022 0.016231 -2.983769
v -0.983769 0.016231 -2.994022
v -0.005974 0.016232 -2.983770
v -0.016228 0.005978 -2.983769
v -0.016232 0.016230 -2.994021
vt 0.493036 0.020756
vt 0.082152 0.280144
vt 0.329215 0.020725
vt 0.969173 0.020846
vt 0.081464 0.456325
vt 0.258144 0.385147
vt 0.873884 0.020944
vt 0.503148 0.480860
vt 0.676901 0.480893
vt 0.755035 0.480841
vt 0.762644 0.480775
vt 0.866122 0.480870
vt 0.874014 0.480872
vt 0.969354 0.480948
vt 0.329396 0.480828
vt 0.064432 0.041579
vt 0.170242 0.280487
vt 0.258332 0.280831
vt 0.167770 0.456916
vt 0.676720 0.020790
vt 0.754799 0.020938
vt 0.762464 0.020940
vt 0.865891 0.020942
vt 0.250822 0.227000
vt 0.159753 0.227506
vt 0.064488 0.151653
vt 0.157385 0.041337
vt 0.493217 0.480859
vt 0.411306 0.480843
vt 0.411125 0.020741
vt 0.502968 0.020758
vt 0.666789 0.020789
vt 0.666970 0.480891
vt 0.250338 0.041095
vt 0.499657 0.020731
vt 0.496350 0.020730
vt 0.184117 0.275201
vt 0.494609 0.016288
vt 0.138142 0.274215
vt 0.136274 0.275915
vt 0.501669 0.016289
vt 0.185289 0.275206
vt 0.170280 0.277816
vt 0.411124 0.016272
vt 0.170263 0.275147
vt 0.326731 0.019485
vt 0.974138 0.018382
vt 0.324248 0.018259
vt 0.263321 0.275510
vt 0.971892 0.016378
vt 0.260811 0.277853
vt 0.258454 0.278123
vt 0.328986 0.016257
vt 0.258597 0.275492
vt 0.673402 0.020762
vt 0.670109 0.020761
vt 0.212997 0.275314
vt 0.668637 0.016321
vt 0.150889 0.363289
vt 0.155080 0.360721
vt 0.675701 0.016322
vt 0.214169 0.275318
vt 0.759912 0.020919
vt 0.757360 0.020918
vt 0.227365 0.275370
vt 0.755219 0.016337
vt 0.200901 0.370331
vt 0.199989 0.371497
vt 0.762383 0.016338
vt 0.228553 0.275374
vt 0.871235 0.020920
vt 0.868573 0.020920
vt 0.246030 0.275443
vt 0.867698 0.016358
vt 0.258197 0.330321
vt 0.258518 0.330107
vt 0.874812 0.016360
vt 0.247211 0.275447
vt 0.203474 0.204085
vt 0.669025 0.485359
vt 0.157751 0.181931
vt 0.670291 0.480912
vt 0.673584 0.480906
vt 0.676476 0.483145
vt 0.157762 0.185943
vt 0.676095 0.485361
vt 0.756517 0.485376
vt 0.157881 0.231574
vt 0.755356 0.483197
vt 0.757558 0.480817
vt 0.760094 0.480795
vt 0.762263 0.483156
vt 0.156830 0.230784
vt 0.761105 0.485377
vt 0.104479 0.126760
vt 0.874949 0.485398
vt 0.084093 0.139218
vt 0.867907 0.485397
vt 0.107718 0.133195
vt 0.858254 0.479761
vt 0.866651 0.480024
vt 0.870343 0.480462
vt 0.496532 0.480886
vt 0.499838 0.480886
vt 0.157504 0.087118
vt 0.501925 0.485328
vt 0.205857 0.067024
vt 0.207620 0.067750
vt 0.494859 0.485327
vt 0.157494 0.083109
vt 0.157357 0.038534
vt 0.411308 0.485311
vt 0.157370 0.035702
vt 0.324431 0.483291
vt 0.974321 0.483413
vt 0.326916 0.482065
vt 0.064160 0.035945
vt 0.329170 0.485295
vt 0.064312 0.038735
vt 0.062206 0.039781
vt 0.972076 0.485417
vt 0.059815 0.038011
vt 0.184916 0.275204
vt 0.499423 0.016289
vt 0.184490 0.275203
vt 0.496855 0.016288
vt 0.282294 0.172599
vt 0.260976 0.275501
vt 0.326774 0.016256
vt 0.263694 0.275512
vt 0.324247 0.016256
vt 0.974137 0.016378
vt 0.260640 0.277108
vt 0.213796 0.275317
vt 0.673456 0.016322
vt 0.213370 0.275315
vt 0.670888 0.016321
vt 0.361276 0.221043
vt 0.228181 0.275373
vt 0.760138 0.016338
vt 0.227738 0.275371
vt 0.757472 0.016338
vt 0.420682 0.235269
vt 0.246839 0.275446
vt 0.872570 0.016359
vt 0.246401 0.275444
vt 0.869934 0.016359
vt 0.502546 0.207159
vt 0.673847 0.485360
vt 0.157758 0.184668
vt 0.671278 0.485360
vt 0.157755 0.183210
vt 0.673675 0.483556
vt 0.758814 0.485376
vt 0.157884 0.232878
vt 0.757495 0.482913
vt 0.760128 0.482913
vt 0.872729 0.485398
vt 0.105500 0.128789
vt 0.870168 0.485397
vt 0.106678 0.131128
vt 0.542367 0.350358
vt 0.157497 0.084385
vt 0.497107 0.485327
vt 0.157501 0.085843
vt 0.499677 0.485328
vt 0.319852 0.233719
vt 0.058782 0.035959
vt 0.974322 0.485417
vt 0.324432 0.485295
vt 0.061650 0.035951
vt 0.326958 0.485295
vt 0.062116 0.038046
vn -0.007873 -0.999968 0.001285
vn -0.499986 -0.866033 0.000970
vn -0.499986 -0.866033 -0.000970
vn -0.007873 -0.999968 -0.001285
vn -0.707108 -0.707105 0.000962
vn -0.707108 -0.707105 -0.000962
vn -0.965949 -0.258730 0.000912
vn -0.999991 -0.003996 0.001290
vn -0.999991 -0.003996 -0.001290
vn -0.965949 -0.258730 -0.000912
vn -0.007925 -0.004007 0.999961
vn -0.005933 -0.499905 0.866060
vn -0.000000 -0.499999 0.866026
vn -0.000000 -0.004453 0.999990
vn -0.005933 -0.866060 0.499905
vn 0.000000 -0.866026 0.499999
vn 0.000000 -0.999999 0.001295
vn -0.866047 -0.003003 0.499953
vn -0.866089 0.003001 0.499881
vn -0.999991 0.003997 0.001289
vn -0.707104 -0.002976 0.707103
vn -0.707103 0.002976 0.707104
vn -0.258535 -0.002825 0.965998
vn -0.007925 0.003694 0.999962
vn -0.258538 0.002823 0.965997
vn 0.999976 -0.006798 0.001411
vn 0.965950 -0.258727 0.000912
vn 0.965950 -0.258727 -0.000912
vn 0.999976 -0.006795 -0.001412
vn 0.707106 -0.707107 0.000961
vn 0.500020 -0.866013 0.000971
vn 0.500003 -0.866023 -0.000970
vn 0.707106 -0.707107 -0.000961
vn 0.007876 -0.999968 0.001285
vn 0.007875 -0.999968 -0.001285
vn 0.005698 -0.004963 0.999972
vn 0.266568 -0.005336 0.963801
vn 0.469597 0.002804 0.882877
vn 0.004835 0.002379 0.999985
vn 0.718643 -0.004364 0.695365
vn 0.867145 -0.004223 0.498038
vn 0.859220 0.003120 0.511596
vn 0.999992 0.003738 0.001400
vn -0.965950 0.258728 0.000915
vn -0.965950 0.258728 -0.000915
vn -0.999991 0.003996 -0.001289
vn -0.707107 0.707106 0.000959
vn -0.707107 0.707106 0.000960
vn -0.707107 0.707106 -0.000960
vn -0.707107 0.707106 -0.000959
vn -0.258726 0.965950 0.000911
vn -0.008249 0.999965 0.001526
vn -0.008244 0.999965 -0.001527
vn -0.258727 0.965950 -0.000911
vn -0.004270 0.863717 0.503960
vn 0.003537 0.854071 0.520144
vn 0.003413 0.999993 0.001514
vn -0.004480 0.720454 0.693489
vn 0.002494 0.462042 0.886855
vn -0.006747 0.266648 0.963770
vn 0.001341 0.003341 0.999994
vn 0.224095 0.974566 0.001459
vn 0.223417 0.974722 -0.001431
vn 0.003395 0.999993 -0.001514
vn 0.435900 0.899994 0.001450
vn 0.435267 0.900301 -0.001431
vn 0.622679 0.782475 0.001636
vn 0.622667 0.782485 -0.001636
vn 0.533198 0.669584 0.517066
vn 0.537042 0.668920 0.513939
vn 0.627382 0.778710 0.001638
vn 0.297152 0.374475 0.878333
vn 0.308587 0.381920 0.871155
vn 0.826795 0.562502 0.001253
vn 0.826811 0.562479 -0.001206
vn 0.627384 0.778708 -0.001636
vn 0.955735 0.294226 0.001256
vn 0.955727 0.294252 -0.001208
vn 0.999992 0.003740 -0.001399
vn -0.866090 0.003002 -0.499879
vn -0.866048 -0.003003 -0.499952
vn -0.707104 0.002978 -0.707103
vn -0.707105 -0.002976 -0.707102
vn -0.258531 0.002823 -0.965999
vn -0.007926 0.003655 -0.999962
vn -0.007925 -0.004007 -0.999961
vn -0.258528 -0.002825 -0.966000
vn -0.006832 0.264103 -0.964470
vn 0.002407 0.459659 -0.888092
vn 0.001329 0.003316 -0.999994
vn -0.004726 0.717925 -0.696105
vn -0.004518 0.862176 -0.506589
vn 0.003364 0.852646 -0.522478
vn 0.295590 0.372508 -0.879695
vn 0.307297 0.380561 -0.872205
vn 0.004813 0.002367 -0.999986
vn 0.532274 0.668513 -0.519398
vn 0.536176 0.668128 -0.515869
vn 0.467747 0.002640 -0.883858
vn 0.264591 -0.005392 -0.964346
vn 0.005651 -0.004965 -0.999972
vn 0.858066 0.002916 -0.513531
vn 0.865789 -0.004389 -0.500390
vn 0.716434 -0.004529 -0.697641
vn 0.000000 -0.999999 -0.001295
vn -0.000000 -0.866026 -0.500000
vn 0.005930 -0.866089 -0.499854
vn -0.000000 -0.500000 -0.866026
vn 0.005877 -0.707095 -0.707095
vn -0.000000 -0.004454 -0.999990
vn 0.005579 -0.258261 -0.966059
vn 0.005929 -0.866089 0.499855
vn 0.005578 -0.258261 0.966059
vn 0.005876 -0.707093 0.707096
vn -0.005583 -0.966060 -0.258257
vn -0.005877 -0.707091 -0.707098
vn -0.005933 -0.499905 -0.866060
vn -0.946104 -0.229005 0.229007
vn -0.707840 -0.499483 0.499479
vn -0.499478 -0.707843 0.499479
vn -0.229007 -0.946103 0.229007
vn -0.499478 -0.499483 0.707841
vn -0.229007 -0.229006 0.946104
vn 0.228840 -0.946114 0.229129
vn 0.499280 -0.707866 0.499645
vn 0.707788 -0.499379 0.499657
vn 0.946177 -0.228797 0.228911
vn 0.499178 -0.499545 0.708009
vn 0.228947 -0.229122 0.946090
vn -0.228556 0.946282 0.228718
vn -0.499253 0.707828 0.499726
vn -0.707888 0.499266 0.499627
vn -0.946135 0.228734 0.229150
vn -0.499560 0.498986 0.708134
vn -0.229202 0.228957 0.946068
vn 0.423820 0.793539 0.436660
vn 0.164661 0.884365 0.436790
vn 0.211685 0.604426 0.768023
vn 0.878593 0.230876 0.418057
vn 0.729174 0.541873 0.417947
vn 0.575421 0.276233 0.769796
vn -0.229233 0.228995 -0.946051
vn -0.499608 0.499028 -0.708070
vn -0.707900 0.499336 -0.499542
vn -0.946124 0.228799 -0.229131
vn -0.499322 0.707831 -0.499653
vn -0.228621 0.946273 -0.228692
vn 0.214779 0.599936 -0.770679
vn 0.168413 0.881794 -0.440540
vn 0.427628 0.790479 -0.438496
vn 0.876403 0.229661 -0.423288
vn 0.570331 0.273788 -0.774444
vn 0.726857 0.540923 -0.423180
vn -0.229009 -0.946103 -0.229007
vn -0.499476 -0.707843 -0.499482
vn -0.707843 -0.499479 -0.499478
vn -0.946102 -0.229008 -0.229011
vn -0.499484 -0.499477 -0.707841
vn -0.228999 -0.229009 -0.946105
vn 0.946170 -0.228841 -0.228898
vn 0.707792 -0.499422 -0.499608
vn 0.499329 -0.707872 -0.499587
vn 0.228880 -0.946108 -0.229116
vn 0.499198 -0.499580 -0.707970
vn 0.228985 -0.229142 -0.946076
s 1
g Wall_HP
usemtl initialShadingGroup
f 3/1/1 2/36/2 77/103/3 85/28/4
f 2/36/2 1/35/5 78/104/6 77/103/3
f 1/35/7 9/31/8 79/8/9 78/104/10
f 6/2/11 5/39/12 11/43/13 10/17/14
f 5/39/12 4/37/15 12/45/16 11/43/13
f 4/38/15 3/1/1 13/30/17 12/44/16
f 9/31/8 8/41/18 26/58/19 25/32/20
f 8/42/18 7/40/21 27/59/22 26/57/19
f 7/40/23 6/2/11 28/5/24 27/59/25
f 16/4/26 15/47/27 90/115/28 98/14/29
f 15/48/30 14/46/31 91/116/32 90/114/33
f 14/46/31 22/3/34 92/15/35 91/116/32
f 19/18/36 18/51/37 47/76/38 46/6/39
f 18/51/40 17/49/41 48/78/42 47/76/38
f 17/50/41 16/4/26 49/7/43 48/77/42
f 25/32/20 24/56/44 53/82/45 52/33/46
f 24/56/47 23/55/48 54/83/49 53/82/50
f 23/55/51 31/20/52 55/9/53 54/83/54
f 31/20/52 30/61/55 35/66/56 34/21/57
f 30/62/55 29/60/58 36/67/59 35/65/56
f 29/60/60 28/5/24 37/19/61 36/67/59
f 34/21/57 33/64/62 62/90/63 61/10/64
f 33/64/62 32/63/65 63/91/66 62/90/63
f 32/63/65 40/22/67 64/11/68 63/91/66
f 40/22/67 39/69/69 44/74/70 43/23/71
f 39/70/69 38/68/72 45/75/73 44/73/70
f 38/68/72 37/19/61 46/6/39 45/75/73
f 43/23/71 42/72/74 74/101/75 73/12/76
f 42/72/74 41/71/77 75/102/78 74/101/75
f 41/71/77 49/7/43 76/13/79 75/102/78
f 52/33/46 51/80/80 80/106/81 79/8/9
f 51/81/80 50/79/82 81/107/83 80/105/81
f 50/79/84 58/24/85 82/34/86 81/107/87
f 58/24/85 57/85/88 59/88/89 67/25/90
f 57/86/91 56/84/92 60/89/93 59/87/89
f 56/84/92 55/9/53 61/10/64 60/89/93
f 67/25/90 66/93/94 71/99/95 70/26/96
f 66/94/94 65/92/97 72/100/98 71/98/95
f 65/92/97 64/11/68 73/12/76 72/100/98
f 70/26/96 69/97/99 96/120/100 95/16/101
f 69/97/99 68/95/102 97/122/103 96/120/104
f 68/96/102 76/13/79 98/14/29 97/121/103
f 89/29/105 88/112/106 93/118/107 92/15/35
f 88/113/106 87/111/108 94/119/109 93/117/107
f 87/111/108 86/27/110 95/16/101 94/119/111
f 6/2/11 10/17/14 37/19/61 28/5/24
f 10/17/14 19/18/36 46/6/39 37/19/61
f 31/20/52 34/21/57 61/10/64 55/9/53
f 40/22/67 43/23/71 73/12/76 64/11/68
f 58/24/85 67/25/90 86/27/110 82/34/86
f 67/25/90 70/26/96 95/16/101 86/27/110
f 85/28/4 89/29/105 13/30/17 3/1/1
f 89/29/105 92/15/35 22/3/34 13/30/17
f 16/4/26 98/14/29 76/13/79 49/7/43
f 79/8/9 9/31/8 25/32/20 52/33/46
f 12/44/16 13/30/17 22/3/34 21/53/112
f 10/17/14 11/43/13 20/52/113 19/18/36
f 11/43/13 12/45/16 21/54/112 20/52/114
f 85/28/4 84/109/115 88/112/106 89/29/105
f 84/110/116 83/108/117 87/111/108 88/113/106
f 83/108/117 82/34/86 86/27/110 87/111/108
f 8/41/18 9/31/8 1/35/7 99/124/118
f 99/124/119 1/35/5 2/36/2 100/126/120
f 2/36/2 3/1/1 4/38/15 100/126/121
f 100/125/120 4/37/15 5/39/12 101/127/122
f 5/39/12 6/2/11 7/40/23 101/127/123
f 101/127/122 7/40/21 8/42/18 99/123/119
f 99/123/119 100/125/120 101/127/122
f 21/53/112 22/3/34 14/46/31 102/129/124
f 102/129/125 14/46/31 15/48/30 103/131/126
f 15/47/27 16/4/26 17/50/41 103/132/127
f 103/130/126 17/49/41 18/51/40 104/133/128
f 18/51/37 19/18/36 20/52/113 104/133/129
f 104/133/128 20/52/114 21/54/112 102/128/125
f 102/128/125 103/130/126 104/133/128
f 30/61/55 31/20/52 23/55/51 105/135/130
f 105/135/131 23/55/48 24/56/47 106/137/132
f 24/56/44 25/32/20 26/58/19 106/137/133
f 106/136/132 26/57/19 27/59/22 107/138/134
f 27/59/25 28/5/24 29/60/60 107/138/135
f 107/138/134 29/60/58 30/62/55 105/134/131
f 105/134/131 106/136/132 107/138/134
f 39/69/69 40/22/67 32/63/65 108/140/136
f 108/140/136 32/63/65 33/64/62 109/142/137
f 33/64/62 34/21/57 35/66/56 109/142/137
f 109/141/137 35/65/56 36/67/59 110/143/138
f 36/67/59 37/19/61 38/68/72 110/143/138
f 110/143/138 38/68/72 39/70/69 108/139/136
f 108/139/136 109/141/137 110/143/138
f 48/77/42 49/7/43 41/71/77 111/145/139
f 111/145/139 41/71/77 42/72/74 112/147/140
f 42/72/74 43/23/71 44/74/70 112/147/140
f 112/146/140 44/73/70 45/75/73 113/148/141
f 45/75/73 46/6/39 47/76/38 113/148/141
f 113/148/141 47/76/38 48/78/42 111/144/139
f 111/144/139 112/146/140 113/148/141
f 57/85/88 58/24/85 50/79/84 114/150/142
f 114/150/143 50/79/82 51/81/80 115/152/144
f 51/80/80 52/33/46 53/82/45 115/151/145
f 115/151/144 53/82/50 54/83/49 116/153/146
f 54/83/54 55/9/53 56/84/92 116/153/147
f 116/153/146 56/84/92 57/86/91 114/149/143
f 114/149/143 115/151/144 116/153/146
f 66/93/94 67/25/90 59/88/89 117/155/148
f 117/154/148 59/87/89 60/89/93 118/156/149
f 60/89/93 61/10/64 62/90/63 118/156/149
f 118/156/149 62/90/63 63/91/66 119/157/150
f 63/91/66 64/11/68 65/92/97 119/157/150
f 119/157/150 65/92/97 66/94/94 117/154/148
f 117/154/148 118/156/149 119/157/150
f 75/102/78 76/13/79 68/96/102 120/158/151
f 120/159/151 68/95/102 69/97/99 121/161/152
f 69/97/99 70/26/96 71/99/95 121/161/152
f 121/160/152 71/98/95 72/100/98 122/162/153
f 72/100/98 73/12/76 74/101/75 122/162/153
f 122/162/153 74/101/75 75/102/78 120/158/151
f 120/158/151 121/160/152 122/162/153
f 84/109/115 85/28/4 77/103/3 123/164/154
f 123/164/155 77/103/3 78/104/6 124/166/156
f 78/104/10 79/8/9 80/106/81 124/166/157
f 124/165/156 80/105/81 81/107/83 125/167/158
f 81/107/87 82/34/86 83/108/117 125/167/159
f 125/167/158 83/108/117 84/110/116 123/163/155
f 123/163/155 124/165/156 125/167/158
f 97/121/103 98/14/29 90/115/28 126/169/160
f 126/170/161 90/114/33 91/116/32 127/172/162
f 91/116/32 92/15/35 93/118/107 127/172/163
f 127/171/162 93/117/107 94/119/109 128/173/164
f 94/119/111 95/16/101 96/120/100 128/173/165
f 128/173/164 96/120/104 97/122/103 126/168/161
f 126/168/161 127/171/162 128/173/164
